# xmcd CD database file
#
# Track frame offsets:
#	150
#	19798
#	32483
#	48090
#
# Disc length: 806 seconds
#
# Revision: 0
# Processed by: cddbd v1.5.2PL0 Copyright (c) Steve Scherf et al.
# Submitted via: CDex 1.70beta2
#
DISCID=22032404
DTITLE=HOUNDS - BEGIN TRANSMISSION PART 2
DYEAR=2014
DGENRE=Industrial Metal
TTITLE0=THE WICKED WITCH
TTITLE1=IN YOUR EYES
TTITLE2=WHITEOUT
TTITLE3=WATCH AND LEARN
EXTD=YEAR: 2014
EXTT0=
EXTT1=
EXTT2=
EXTT3=
PLAYORDER=
